<svg width="19" height="18" viewBox="0 0 19 18" fill="none" xmlns="http://www.w3.org/2000/svg">
<path d="M0.40057 18H18.1486C18.2548 18 18.3567 17.9578 18.4319 17.8827C18.507 17.8075 18.5492 17.7056 18.5492 17.5994C18.5468 15.4853 17.7059 13.4585 16.211 11.9637C14.7161 10.4688 12.6893 9.628 10.5752 9.62567H7.97394C5.85987 9.628 3.83305 10.4688 2.33816 11.9637C0.843267 13.4585 0.00238558 15.4853 0 17.5994C0 17.7056 0.0422028 17.8075 0.117324 17.8827C0.192446 17.9578 0.294332 18 0.40057 18ZM7.97394 10.4268H10.5752C12.4076 10.429 14.1698 11.1314 15.5011 12.3904C16.8325 13.6493 17.6323 15.3695 17.7368 17.1988H0.812355C0.916903 15.3695 1.71671 13.6493 3.04807 12.3904C4.37942 11.1314 6.14162 10.429 7.97394 10.4268Z" fill="#131313"/>
<path d="M13.3463 4.07179C13.3463 3.2665 13.1076 2.47928 12.6602 1.80968C12.2129 1.14009 11.577 0.61819 10.833 0.309991C10.089 0.00179088 9.27034 -0.0788687 8.48051 0.0782119C7.69069 0.235292 6.96518 0.623058 6.39574 1.19247C5.8263 1.76189 5.4385 2.48737 5.28138 3.27719C5.12426 4.06701 5.20488 4.88568 5.51304 5.62968C5.8212 6.37367 6.34307 7.00958 7.01264 7.45698C7.68222 7.90438 8.46942 8.14318 9.27472 8.14318C10.3542 8.14202 11.3891 7.7127 12.1524 6.94942C12.9157 6.18615 13.3451 5.15125 13.3463 4.07179ZM6.00427 4.07179C6.00423 3.42495 6.196 2.79262 6.55534 2.25477C6.91468 1.71692 7.42544 1.29771 8.02303 1.05015C8.62062 0.802583 9.27821 0.737789 9.91263 0.863958C10.547 0.990126 11.1298 1.30159 11.5872 1.75896C12.0446 2.21634 12.3561 2.79907 12.4823 3.43349C12.6085 4.0679 12.5438 4.72548 12.2962 5.32309C12.0487 5.9207 11.6295 6.43149 11.0917 6.79086C10.5539 7.15023 9.92156 7.34204 9.27472 7.34204C8.40767 7.34109 7.5764 6.99625 6.96328 6.38317C6.35017 5.77009 6.00527 4.93884 6.00427 4.07179Z" fill="#131313"/>
</svg>
