<svg width="22" height="22" viewBox="0 0 22 22" fill="none" xmlns="http://www.w3.org/2000/svg">
<g clip-path="url(#clip0_22_370)">
<path d="M20.9863 21.4521L19.3425 6.13699C19.3151 5.89041 19.0959 5.69863 18.8493 5.69863H15.8082V4.76712C15.8082 2.13699 13.6713 0 11.0411 0C8.41098 0 6.27399 2.13699 6.27399 4.76712V5.69863H3.15071C2.90413 5.69863 2.68495 5.89041 2.65755 6.13699L1.01372 21.4521C0.986321 21.589 1.04112 21.726 1.12331 21.8356C1.2055 21.9452 1.34249 22 1.47947 22H20.5206C20.6576 22 20.7945 21.9452 20.8767 21.8356C20.9589 21.726 21.0137 21.589 20.9863 21.4521ZM15.3151 8.46575C15.5617 8.46575 15.7534 8.65753 15.7534 8.90411C15.7534 9.15069 15.5617 9.34247 15.3151 9.34247C15.0685 9.34247 14.8767 9.15069 14.8767 8.90411C14.8767 8.65753 15.0685 8.46575 15.3151 8.46575ZM7.26029 4.76712C7.26029 2.68493 8.95892 0.986301 11.0411 0.986301C13.1233 0.986301 14.8219 2.68493 14.8219 4.76712V5.69863H7.26029V4.76712ZM6.76714 8.46575C7.01372 8.46575 7.2055 8.65753 7.2055 8.90411C7.2055 9.15069 7.01372 9.34247 6.76714 9.34247C6.52057 9.34247 6.32879 9.15069 6.32879 8.90411C6.32879 8.65753 6.52057 8.46575 6.76714 8.46575ZM2.05481 20.9863L3.58906 6.65753H6.27399V7.56164C5.72605 7.75342 5.34249 8.27397 5.34249 8.87671C5.34249 9.64384 5.97262 10.274 6.73975 10.274C7.50687 10.274 8.13701 9.64384 8.13701 8.87671C8.13701 8.27397 7.75345 7.75342 7.2055 7.56164V6.65753H14.7671V7.56164C14.2192 7.75342 13.8356 8.27397 13.8356 8.87671C13.8356 9.64384 14.4658 10.274 15.2329 10.274C16 10.274 16.6302 9.64384 16.6302 8.87671C16.6302 8.27397 16.2466 7.75342 15.6987 7.56164V6.65753H18.4932L20.0274 20.9863H2.05481Z" fill="#131313"/>
</g>
<defs>
<clipPath id="clip0_22_370">
<rect width="22" height="22" fill="white"/>
</clipPath>
</defs>
</svg>
