<svg width="18" height="18" viewBox="0 0 18 18" fill="none" xmlns="http://www.w3.org/2000/svg">
<path d="M0.428571 2.57143H11.1086V3C11.1086 3.34099 11.244 3.66802 11.4851 3.90914C11.7263 4.15026 12.0533 4.28571 12.3943 4.28571H14.1086C14.4496 4.28571 14.7766 4.15026 15.0177 3.90914C15.2588 3.66802 15.3943 3.34099 15.3943 3V2.57143H17.3914C17.5051 2.57143 17.6141 2.52628 17.6945 2.4459C17.7748 2.36553 17.82 2.25652 17.82 2.14286C17.82 2.02919 17.7748 1.92018 17.6945 1.83981C17.6141 1.75944 17.5051 1.71429 17.3914 1.71429H15.3943V1.28571C15.3943 0.944722 15.2588 0.617695 15.0177 0.376577C14.7766 0.135459 14.4496 0 14.1086 0H12.3943C12.0533 0 11.7263 0.135459 11.4851 0.376577C11.244 0.617695 11.1086 0.944722 11.1086 1.28571V1.71429H0.428571C0.314907 1.71429 0.205898 1.75944 0.125526 1.83981C0.045153 1.92018 0 2.02919 0 2.14286C0 2.25652 0.045153 2.36553 0.125526 2.4459C0.205898 2.52628 0.314907 2.57143 0.428571 2.57143Z" fill="#131313"/>
<path d="M17.4516 15.4285H13.6802V15C13.6802 14.659 13.5448 14.332 13.3036 14.0908C13.0625 13.8497 12.7355 13.7143 12.3945 13.7143H10.6802C10.3392 13.7143 10.0122 13.8497 9.77108 14.0908C9.52996 14.332 9.3945 14.659 9.3945 15V15.4285H0.43736C0.323696 15.4285 0.214688 15.4737 0.134315 15.5541C0.0539421 15.6344 0.00878906 15.7435 0.00878906 15.8571C0.00878906 15.9708 0.0539421 16.0798 0.134315 16.1602C0.214688 16.2405 0.323696 16.2857 0.43736 16.2857H9.3945V16.7143C9.3945 17.0553 9.52996 17.3823 9.77108 17.6234C10.0122 17.8645 10.3392 18 10.6802 18H12.3945C12.7355 18 13.0625 17.8645 13.3036 17.6234C13.5448 17.3823 13.6802 17.0553 13.6802 16.7143V16.2857H17.4516C17.5653 16.2857 17.6743 16.2405 17.7547 16.1602C17.8351 16.0798 17.8802 15.9708 17.8802 15.8571C17.8802 15.7435 17.8351 15.6344 17.7547 15.5541C17.6743 15.4737 17.5653 15.4285 17.4516 15.4285Z" fill="#131313"/>
<path d="M5.53698 11.1429H7.25127C7.59226 11.1429 7.91929 11.0074 8.16041 10.7663C8.40153 10.5252 8.53698 10.1981 8.53698 9.85715V9.42858H17.4941C17.6078 9.42858 17.7168 9.38342 17.7972 9.30305C17.8775 9.22268 17.9227 9.11367 17.9227 9C17.9227 8.88634 17.8775 8.77733 17.7972 8.69696C17.7168 8.61659 17.6078 8.57143 17.4941 8.57143H8.53698V8.14286C8.53698 7.80187 8.40153 7.47484 8.16041 7.23372C7.91929 6.99261 7.59226 6.85715 7.25127 6.85715H5.53698C5.19599 6.85715 4.86896 6.99261 4.62785 7.23372C4.38673 7.47484 4.25127 7.80187 4.25127 8.14286V8.57143H0.479841C0.366177 8.57143 0.257168 8.61659 0.176795 8.69696C0.0964225 8.77733 0.0512695 8.88634 0.0512695 9C0.0512695 9.11367 0.0964225 9.22268 0.176795 9.30305C0.257168 9.38342 0.366177 9.42858 0.479841 9.42858H4.25127V9.85715C4.25127 10.1981 4.38673 10.5252 4.62785 10.7663C4.86896 11.0074 5.19599 11.1429 5.53698 11.1429Z" fill="#131313"/>
</svg>
