<svg width="21" height="18" viewBox="0 0 21 18" fill="none" xmlns="http://www.w3.org/2000/svg">
<path d="M10.7872 18C10.4991 18 10.2214 17.8957 10.005 17.7061C9.18769 16.9914 8.3997 16.3198 7.70447 15.7274L7.70092 15.7243C5.66262 13.9873 3.90247 12.4873 2.6778 11.0096C1.3088 9.35765 0.671143 7.79138 0.671143 6.08032C0.671143 4.41788 1.24119 2.88418 2.27616 1.76153C3.32348 0.625613 4.76055 0 6.32312 0C7.49099 0 8.56054 0.369224 9.50197 1.09733C9.97708 1.46486 10.4077 1.91466 10.7872 2.43932C11.1667 1.91466 11.5972 1.46486 12.0725 1.09733C13.0139 0.369224 14.0835 0 15.2513 0C16.8138 0 18.251 0.625613 19.2983 1.76153C20.3333 2.88418 20.9032 4.41788 20.9032 6.08032C20.9032 7.79138 20.2657 9.35765 18.8967 11.0094C17.672 12.4873 15.912 13.9872 13.874 15.724C13.1775 16.3173 12.3883 16.99 11.5691 17.7064C11.3529 17.8957 11.075 18 10.7872 18ZM6.32312 1.18516C5.09551 1.18516 3.96777 1.67509 3.14735 2.56481C2.31475 3.46796 1.85615 4.71641 1.85615 6.08032C1.85615 7.5194 2.391 8.80644 3.59021 10.2534C4.74928 11.652 6.47331 13.1212 8.46947 14.8224L8.47317 14.8255C9.17102 15.4202 9.96211 16.0944 10.7855 16.8144C11.6137 16.0931 12.4061 15.4177 13.1053 14.8221C15.1013 13.1209 16.8252 11.652 17.9842 10.2534C19.1833 8.80644 19.7182 7.5194 19.7182 6.08032C19.7182 4.71641 19.2596 3.46796 18.4269 2.56481C17.6067 1.67509 16.4788 1.18516 15.2513 1.18516C14.3521 1.18516 13.5264 1.47103 12.7974 2.03475C12.1477 2.53734 11.6951 3.17268 11.4297 3.61723C11.2933 3.84583 11.0531 3.98228 10.7872 3.98228C10.5212 3.98228 10.281 3.84583 10.1446 3.61723C9.87937 3.17268 9.42679 2.53734 8.77695 2.03475C8.04791 1.47103 7.22225 1.18516 6.32312 1.18516Z" fill="#131313"/>
</svg>
