<svg width="24" height="24" viewBox="0 0 24 24" fill="none" xmlns="http://www.w3.org/2000/svg">
<path d="M2 8.4C1.99988 7.68237 2.1428 6.97191 2.4204 6.31015C2.69801 5.64838 3.10474 5.04859 3.61681 4.54583C4.12889 4.04306 4.73604 3.64741 5.40279 3.38199C6.06953 3.11657 6.78249 2.98671 7.5 3C8.34896 2.99549 9.18919 3.17147 9.96499 3.51627C10.7408 3.86107 11.4345 4.36682 12 5C12.5655 4.36682 13.2592 3.86107 14.035 3.51627C14.8108 3.17147 15.651 2.99549 16.5 3C17.2175 2.98671 17.9305 3.11657 18.5972 3.38199C19.264 3.64741 19.8711 4.04306 20.3832 4.54583C20.8953 5.04859 21.302 5.64838 21.5796 6.31015C21.8572 6.97191 22.0001 7.68237 22 8.4C22 13.756 15.621 17.8 12 21C8.387 17.773 2 13.76 2 8.4Z" fill="black"/>
</svg>
