<svg width="150" height="39" viewBox="0 0 150 39" fill="none" xmlns="http://www.w3.org/2000/svg">
<g clip-path="url(#clip0_25_83)">
<path d="M5.43123 0L9.12714 5.79175H5.74673L-0.0112305 0H5.43123ZM4.21428 8.59751H9.28489V37.5563H4.21428V8.59751Z" fill="#1D1D1B"/>
<path d="M22.8741 27.8996C22.8741 32.3167 26.1643 34.1083 30.2208 34.1083C34.7281 34.1083 36.3394 31.8547 36.3394 29.7251C36.4043 28.9472 36.2034 28.1703 35.7695 27.5214C35.3355 26.8726 34.6943 26.3902 33.9506 26.1531C31.8772 25.3869 29.3307 24.8573 25.308 23.7643C20.3162 22.4685 18.8965 19.4261 18.8965 16.4175C18.8965 10.5807 24.2601 7.91016 29.4884 7.91016C35.4943 7.91016 40.5987 11.1103 40.5987 17.15H35.5281C35.2464 13.4202 32.8125 12.0455 29.2856 12.0455C26.9306 12.0455 23.9671 12.8906 23.9671 15.8091C23.9671 17.8824 25.353 18.9416 27.4151 19.55C27.8658 19.6627 34.2773 21.3304 35.776 21.8037C37.3934 22.2515 38.8197 23.2165 39.8371 24.5513C40.8544 25.8861 41.4069 27.5172 41.41 29.1955C41.41 35.6859 35.6182 38.2775 29.8941 38.2775C23.2797 38.2775 17.9274 35.1112 17.8035 27.9335L22.8741 27.8996Z" fill="#1D1D1B"/>
<path d="M46.1652 8.59753H69.6026V12.9695H60.3967V37.5563H55.3824V12.9695H46.2215L46.1652 8.59753Z" fill="#1D1D1B"/>
<path d="M78.2452 0L81.9411 5.79175H78.5607L72.8027 0H78.2452ZM77.0282 8.59751H82.0989V37.5563H77.0282V8.59751Z" fill="#1D1D1B"/>
<path d="M92.1613 8.59753H97.5136L110.742 29.9279H110.821V8.59753H115.644V37.5563H110.292L97.0741 16.226H96.9502V37.5225H92.1274L92.1613 8.59753Z" fill="#1D1D1B"/>
<path d="M133.459 8.59753H138.845L150 37.5563H144.569L141.853 29.8828H130.292L127.577 37.5563H122.337L133.459 8.59753ZM140.512 26.0404L136.174 13.578H136.05L131.667 26.0404H140.512Z" fill="#1D1D1B"/>
</g>
<defs>
<clipPath id="clip0_25_83">
<rect width="150" height="38.2437" fill="white"/>
</clipPath>
</defs>
</svg>
