<svg width="18" height="18" viewBox="0 0 18 18" fill="none" xmlns="http://www.w3.org/2000/svg">
<path d="M17.8466 17.1064L13.7568 13.0165C15.012 11.5851 15.7046 9.77389 15.7046 7.85231C15.7046 5.75479 14.8877 3.78302 13.4047 2.29997C11.9216 0.816927 9.94984 0 7.85231 0C5.75479 0 3.78302 0.816927 2.29997 2.29997C0.816927 3.78302 0 5.75479 0 7.85231C0 9.94984 0.816927 11.9216 2.29997 13.4047C3.78302 14.8877 5.75479 15.7046 7.85231 15.7046C9.77389 15.7046 11.5851 15.012 13.0165 13.7568L17.1064 17.8466C17.2086 17.9489 17.3426 18 17.4765 18C17.6105 18 17.7444 17.9489 17.8466 17.8466C18.0511 17.6421 18.0511 17.3109 17.8466 17.1064ZM3.04022 12.6644C1.75501 11.379 1.04698 9.66995 1.04698 7.85231C1.04698 6.03468 1.75501 4.32567 3.04022 3.04022C4.32567 1.75501 6.03468 1.04698 7.85231 1.04698C9.66995 1.04698 11.379 1.75501 12.6644 3.04022C13.9496 4.32567 14.6577 6.03468 14.6577 7.85231C14.6577 9.66995 13.9496 11.379 12.6644 12.6644C11.379 13.9496 9.66995 14.6577 7.85231 14.6577C6.03468 14.6577 4.32567 13.9496 3.04022 12.6644Z" fill="#131313"/>
</svg>
