<svg width="34" height="41" viewBox="0 0 34 41" fill="none" xmlns="http://www.w3.org/2000/svg">
<path d="M22.3147 14.8544C21.7843 14.8544 21.3545 15.2842 21.3545 15.8146V33.962C21.3545 34.492 21.7843 34.9222 22.3147 34.9222C22.845 34.9222 23.2749 34.492 23.2749 33.962V15.8146C23.2749 15.2842 22.845 14.8544 22.3147 14.8544Z" fill="#828282"/>
<path d="M10.9846 14.8544C10.4542 14.8544 10.0244 15.2842 10.0244 15.8146V33.962C10.0244 34.492 10.4542 34.9222 10.9846 34.9222C11.515 34.9222 11.9448 34.492 11.9448 33.962V15.8146C11.9448 15.2842 11.515 14.8544 10.9846 14.8544Z" fill="#828282"/>
<path d="M2.72708 12.2059V35.8628C2.72708 37.2611 3.2398 38.5742 4.13548 39.5164C5.02702 40.4612 6.26776 40.9976 7.56626 40.9998H25.7332C27.0321 40.9976 28.2729 40.4612 29.164 39.5164C30.0597 38.5742 30.5724 37.2611 30.5724 35.8628V12.2059C32.3529 11.7333 33.5066 10.0132 33.2684 8.18627C33.0299 6.35966 31.4737 4.99328 29.6314 4.9929H24.7153V3.79267C24.7209 2.78335 24.3219 1.81417 23.6073 1.10115C22.8928 0.388518 21.9221 -0.00830853 20.9128 -5.69451e-05H12.3867C11.3774 -0.00830853 10.4067 0.388518 9.69217 1.10115C8.97766 1.81417 8.57858 2.78335 8.58421 3.79267V4.9929H3.66814C1.82578 4.99328 0.269608 6.35966 0.0310625 8.18627C-0.207108 10.0132 0.946613 11.7333 2.72708 12.2059V12.2059ZM25.7332 39.0794H7.56626C5.92457 39.0794 4.64745 37.6692 4.64745 35.8628V12.2903H28.6521V35.8628C28.6521 37.6692 27.3749 39.0794 25.7332 39.0794ZM10.5046 3.79267C10.4982 3.2927 10.6947 2.81148 11.0496 2.45854C11.404 2.1056 11.8863 1.91169 12.3867 1.92031H20.9128C21.4132 1.91169 21.8955 2.1056 22.25 2.45854C22.6048 2.81111 22.8013 3.2927 22.7949 3.79267V4.9929H10.5046V3.79267ZM3.66814 6.91327H29.6314C30.5859 6.91327 31.3597 7.68704 31.3597 8.6416C31.3597 9.59616 30.5859 10.3699 29.6314 10.3699H3.66814C2.71358 10.3699 1.9398 9.59616 1.9398 8.6416C1.9398 7.68704 2.71358 6.91327 3.66814 6.91327V6.91327Z" fill="#828282"/>
<path d="M16.6496 14.8544C16.1193 14.8544 15.6895 15.2842 15.6895 15.8146V33.962C15.6895 34.492 16.1193 34.9222 16.6496 34.9222C17.18 34.9222 17.6098 34.492 17.6098 33.962V15.8146C17.6098 15.2842 17.18 14.8544 16.6496 14.8544Z" fill="#828282"/>
</svg>
